<svg id="svg" version="1.1" xmlns="http://www.w3.org/2000/svg" xmlns:xlink="http://www.w3.org/1999/xlink" width="400" height="232.8125" viewBox="0, 0, 400,232.8125"><g id="svgg"><path id="path0" d="M107.391 7.625 C 107.248 7.969,106.577 9.506,105.899 11.042 C 105.221 12.577,104.104 15.108,103.417 16.667 C 102.729 18.225,101.604 20.775,100.917 22.333 C 100.229 23.892,99.104 26.442,98.417 28.000 C 97.729 29.558,96.604 32.108,95.917 33.667 C 95.229 35.225,94.104 37.775,93.417 39.333 C 92.729 40.892,91.604 43.442,90.917 45.000 C 90.229 46.558,89.104 49.108,88.417 50.667 C 87.729 52.225,86.604 54.775,85.917 56.333 C 85.229 57.892,84.104 60.442,83.417 62.000 C 82.729 63.558,81.604 66.108,80.917 67.667 C 80.229 69.225,79.104 71.775,78.417 73.333 C 77.729 74.892,76.604 77.442,75.917 79.000 C 75.229 80.558,74.104 83.108,73.417 84.667 C 72.729 86.225,71.604 88.775,70.917 90.333 C 70.229 91.892,69.104 94.442,68.417 96.000 C 67.729 97.558,66.604 100.108,65.917 101.667 C 65.229 103.225,64.104 105.775,63.417 107.333 C 62.729 108.892,61.604 111.442,60.917 113.000 C 60.229 114.558,59.104 117.108,58.417 118.667 C 57.729 120.225,56.596 122.794,55.899 124.375 C 54.592 127.340,52.135 132.905,50.583 136.417 C 50.097 137.517,49.122 139.729,48.415 141.333 C 47.216 144.057,45.147 148.746,43.083 153.417 C 42.597 154.517,41.629 156.710,40.933 158.292 C 38.847 163.028,37.221 166.714,35.548 170.500 C 34.677 172.471,33.452 175.246,32.827 176.667 C 32.201 178.088,31.046 180.700,30.261 182.472 C 29.476 184.243,28.833 185.763,28.833 185.848 C 28.833 185.943,51.452 185.986,87.292 185.959 C 152.633 185.912,146.387 186.030,148.075 184.809 C 148.436 184.547,148.829 184.333,148.948 184.333 C 149.067 184.333,149.508 184.071,149.928 183.750 C 150.348 183.429,150.760 183.167,150.842 183.167 C 151.002 183.167,152.762 180.616,153.233 179.701 C 153.742 178.713,154.333 175.982,154.177 175.333 C 152.887 169.937,154.156 171.452,139.167 157.408 C 96.475 117.409,100.791 121.779,95.854 113.548 C 94.467 111.237,93.333 109.301,93.333 109.245 C 93.333 109.189,92.962 108.154,92.509 106.946 C 89.054 97.744,88.026 89.443,89.425 82.046 C 90.824 74.652,92.437 69.826,94.814 65.923 C 95.263 65.186,95.859 64.126,96.138 63.567 C 96.418 63.007,96.825 62.332,97.044 62.067 C 97.263 61.801,97.976 60.796,98.628 59.833 C 102.359 54.329,106.790 50.307,113.083 46.714 C 120.073 42.723,124.674 40.917,130.167 40.007 C 136.246 39.000,123.946 39.099,255.076 39.004 L 374.401 38.917 375.176 37.167 C 375.601 36.204,376.494 34.179,377.159 32.667 C 377.824 31.154,378.916 28.679,379.585 27.167 C 380.254 25.654,381.491 22.842,382.335 20.917 C 384.380 16.249,386.153 12.230,387.350 9.544 C 387.891 8.331,388.333 7.262,388.333 7.169 C 388.333 7.055,342.803 7.000,247.991 7.000 L 107.650 7.000 107.391 7.625 M139.583 79.000 C 139.400 79.079,138.950 79.149,138.584 79.155 C 132.134 79.268,127.554 88.395,131.208 93.852 C 132.498 95.778,130.779 94.134,166.765 127.867 C 176.093 136.611,181.441 141.742,182.050 142.533 C 182.564 143.203,183.518 144.425,184.170 145.250 C 189.757 152.322,192.565 159.177,194.148 169.607 C 194.890 174.494,194.532 182.791,193.411 186.667 C 190.825 195.611,188.093 200.943,182.648 207.667 C 178.549 212.729,169.032 219.750,163.333 221.917 C 160.284 223.077,159.310 224.901,161.437 225.470 C 161.974 225.614,166.105 225.667,176.814 225.667 L 191.457 225.667 192.215 223.958 C 192.632 223.019,193.698 220.600,194.584 218.583 C 195.471 216.567,196.681 213.841,197.273 212.527 C 197.865 211.212,198.489 209.787,198.660 209.360 C 198.830 208.933,199.283 207.908,199.667 207.083 C 200.050 206.258,200.503 205.234,200.674 204.807 C 200.844 204.380,201.466 202.955,202.056 201.640 C 203.167 199.162,204.487 196.183,207.251 189.917 C 208.140 187.900,209.422 184.994,210.100 183.458 C 210.778 181.923,211.896 179.392,212.583 177.833 C 213.271 176.275,214.396 173.725,215.083 172.167 C 215.771 170.608,216.896 168.058,217.583 166.500 C 218.271 164.942,219.396 162.392,220.083 160.833 C 220.771 159.275,221.896 156.725,222.583 155.167 C 223.271 153.608,224.396 151.058,225.083 149.500 C 225.771 147.942,226.896 145.392,227.583 143.833 C 228.271 142.275,229.403 139.706,230.099 138.125 C 230.795 136.544,231.845 134.183,232.432 132.878 C 233.019 131.574,233.500 130.471,233.500 130.427 C 233.500 130.384,233.868 129.538,234.319 128.549 C 234.769 127.559,235.714 125.438,236.420 123.833 C 237.627 121.087,239.214 117.491,242.119 110.917 C 242.807 109.358,243.925 106.827,244.602 105.292 C 245.279 103.756,246.388 101.244,247.067 99.708 C 250.043 92.971,251.549 89.558,252.749 86.833 C 253.455 85.229,254.513 82.842,255.100 81.528 C 255.686 80.214,256.167 79.070,256.167 78.986 C 256.167 78.790,140.041 78.803,139.583 79.000 M297.835 81.958 C 297.074 83.677,295.982 86.133,295.409 87.417 C 294.278 89.951,291.951 95.214,289.919 99.833 C 289.214 101.438,288.202 103.725,287.670 104.917 C 287.139 106.108,286.141 108.358,285.452 109.917 C 284.764 111.475,283.188 115.037,281.951 117.833 C 280.714 120.629,279.123 124.229,278.416 125.833 C 277.709 127.438,275.984 131.337,274.583 134.500 C 273.182 137.662,271.457 141.563,270.749 143.167 C 270.041 144.771,268.316 148.671,266.915 151.833 C 265.514 154.996,263.640 159.233,262.750 161.250 C 261.860 163.267,260.285 166.829,259.250 169.167 C 258.215 171.504,256.492 175.404,255.420 177.833 C 254.348 180.262,253.184 182.887,252.833 183.667 C 252.483 184.446,251.619 186.396,250.913 188.000 C 248.886 192.613,246.551 197.894,245.498 200.250 C 244.965 201.442,243.802 204.067,242.914 206.083 C 242.026 208.100,240.738 211.025,240.051 212.583 C 239.365 214.142,238.367 216.392,237.833 217.583 C 235.818 222.082,234.333 225.470,234.333 225.567 C 234.333 225.622,247.221 225.667,262.973 225.667 L 291.612 225.667 292.380 223.958 C 294.524 219.189,295.550 216.884,295.668 216.577 C 295.740 216.390,296.287 215.153,296.885 213.827 C 297.927 211.515,298.925 209.276,301.005 204.583 C 301.533 203.392,302.581 201.029,303.333 199.333 C 304.086 197.637,305.134 195.275,305.662 194.083 C 307.453 190.043,308.694 187.255,309.373 185.750 C 309.745 184.925,310.478 183.275,311.003 182.083 C 311.527 180.892,317.714 166.979,324.751 151.167 C 331.788 135.354,337.940 121.517,338.423 120.417 C 338.906 119.317,340.555 115.604,342.087 112.167 C 343.620 108.729,345.305 104.942,345.832 103.750 C 347.740 99.431,348.877 96.882,349.680 95.118 C 350.131 94.128,350.500 93.288,350.500 93.250 C 350.500 93.212,351.018 92.034,351.651 90.632 C 353.846 85.771,356.833 79.002,356.833 78.888 C 356.833 78.858,343.870 78.833,328.026 78.833 L 299.219 78.833 297.835 81.958 " stroke="none" fill="#047cfc" fill-rule="evenodd"></path><path id="path1" d="M100.672 1.708 C 100.278 2.648,99.404 4.627,98.728 6.106 C 98.053 7.586,97.500 8.873,97.500 8.968 C 97.500 9.063,97.082 10.027,96.570 11.112 C 96.059 12.196,95.374 13.758,95.048 14.583 C 94.722 15.408,94.230 16.533,93.955 17.082 C 93.679 17.632,93.134 18.869,92.743 19.832 C 92.352 20.795,91.771 22.146,91.452 22.833 C 90.350 25.206,90.000 26.010,90.000 26.167 C 90.000 26.314,88.679 29.244,88.332 29.867 C 88.245 30.023,87.900 30.848,87.565 31.700 C 87.229 32.553,86.730 33.700,86.455 34.249 C 86.179 34.799,85.634 36.036,85.243 36.999 C 84.852 37.962,84.271 39.313,83.952 40.000 C 82.878 42.314,82.500 43.176,82.500 43.314 C 82.500 43.437,82.058 44.419,80.486 47.792 C 80.219 48.365,80.000 48.899,80.000 48.977 C 80.000 49.121,79.458 50.355,78.384 52.659 C 78.065 53.343,77.633 54.355,77.423 54.909 C 77.213 55.463,76.742 56.554,76.376 57.333 C 76.010 58.112,75.543 59.163,75.339 59.667 C 74.925 60.688,74.192 62.344,73.176 64.552 C 72.804 65.359,72.500 66.087,72.500 66.170 C 72.500 66.252,72.118 67.129,71.651 68.118 C 71.184 69.107,70.479 70.704,70.083 71.667 C 69.687 72.629,68.944 74.340,68.432 75.469 C 67.919 76.598,67.500 77.587,67.500 77.667 C 67.500 77.748,67.136 78.587,66.691 79.532 C 65.185 82.730,65.000 83.146,65.000 83.328 C 65.000 83.428,64.745 84.051,64.434 84.713 C 63.190 87.360,62.829 88.171,62.442 89.188 C 62.220 89.772,61.738 90.888,61.371 91.667 C 61.004 92.446,60.538 93.496,60.335 94.000 C 60.001 94.830,59.659 95.599,58.014 99.213 C 57.731 99.834,57.500 100.404,57.500 100.481 C 57.500 100.625,56.288 103.359,55.994 103.877 C 55.903 104.039,55.500 104.977,55.099 105.961 C 54.698 106.945,54.053 108.425,53.664 109.250 C 53.276 110.075,52.787 111.203,52.577 111.757 C 52.367 112.311,51.935 113.324,51.616 114.007 C 50.548 116.299,50.000 117.545,50.000 117.686 C 50.000 117.763,49.745 118.371,49.434 119.038 C 48.126 121.839,47.707 122.778,47.590 123.170 C 47.468 123.580,47.260 124.050,46.093 126.547 C 45.760 127.261,45.273 128.386,45.010 129.047 C 44.748 129.709,44.076 131.254,43.517 132.482 C 42.958 133.709,42.500 134.776,42.500 134.852 C 42.500 134.928,42.174 135.687,41.775 136.537 C 40.489 139.279,40.209 139.909,40.087 140.333 C 39.968 140.747,39.770 141.195,38.577 143.750 C 38.234 144.483,37.784 145.533,37.576 146.083 C 37.369 146.633,36.899 147.721,36.532 148.500 C 35.590 150.499,35.000 151.852,35.000 152.011 C 35.000 152.136,34.645 152.923,33.068 156.298 C 32.755 156.966,32.500 157.590,32.500 157.683 C 32.500 157.777,32.320 158.243,32.099 158.719 C 31.879 159.194,31.384 160.258,31.000 161.083 C 30.616 161.908,30.130 163.033,29.921 163.583 C 29.712 164.133,29.277 165.146,28.953 165.833 C 28.076 167.699,27.500 169.025,27.500 169.178 C 27.500 169.252,27.209 169.937,26.853 170.698 C 25.505 173.583,25.000 174.718,25.000 174.864 C 25.000 174.946,24.783 175.480,24.518 176.049 C 23.162 178.956,22.770 179.834,22.420 180.750 C 22.210 181.300,21.739 182.387,21.373 183.167 C 20.473 185.082,20.000 186.180,20.000 186.351 C 20.000 186.429,19.745 187.038,19.434 187.705 C 17.977 190.821,17.500 191.893,17.500 192.049 C 17.500 192.142,17.320 192.600,17.100 193.067 C 15.717 196.002,15.264 197.009,14.922 197.907 C 14.711 198.462,14.239 199.554,13.873 200.333 C 12.983 202.229,12.500 203.347,12.500 203.511 C 12.500 203.586,12.207 204.270,11.848 205.032 C 10.687 207.499,10.000 209.044,10.000 209.186 C 10.000 209.263,9.748 209.871,9.440 210.538 C 7.984 213.692,7.500 214.795,7.500 214.960 C 7.500 215.059,7.388 215.352,7.251 215.611 C 6.735 216.587,5.336 219.697,5.101 220.389 C 4.967 220.785,4.579 221.703,4.239 222.430 C 3.034 225.001,2.500 226.210,2.500 226.362 C 2.500 226.446,2.229 227.093,1.898 227.799 C 0.530 230.719,-0.000 231.980,-0.000 232.314 L 0.000 232.667 148.795 232.667 L 297.590 232.667 298.571 230.542 C 299.111 229.373,299.759 227.892,300.011 227.250 C 300.263 226.608,300.877 225.221,301.375 224.167 C 301.873 223.112,302.377 221.959,302.494 221.604 C 302.611 221.248,303.176 219.967,303.750 218.757 C 304.324 217.546,304.847 216.374,304.913 216.153 C 305.037 215.736,305.284 215.182,306.542 212.500 C 306.950 211.629,307.342 210.729,307.411 210.500 C 307.481 210.271,308.020 209.047,308.608 207.781 C 309.196 206.515,309.855 205.015,310.072 204.448 C 310.289 203.881,310.875 202.554,311.374 201.500 C 311.873 200.446,312.377 199.283,312.495 198.917 C 312.614 198.550,312.763 198.175,312.829 198.083 C 312.894 197.992,313.364 196.979,313.874 195.833 C 314.383 194.688,315.152 192.963,315.583 192.000 C 316.013 191.037,316.763 189.313,317.248 188.167 C 317.733 187.021,318.503 185.293,318.957 184.327 C 319.412 183.361,319.879 182.283,319.995 181.931 C 320.111 181.579,320.676 180.301,321.250 179.090 C 321.824 177.879,322.347 176.708,322.413 176.486 C 322.535 176.078,322.744 175.606,323.997 172.926 C 324.380 172.107,324.868 170.982,325.081 170.426 C 325.294 169.871,325.859 168.592,326.337 167.583 C 326.815 166.575,327.341 165.375,327.506 164.917 C 327.670 164.458,328.299 163.035,328.902 161.753 C 329.506 160.472,330.000 159.321,330.000 159.196 C 330.000 159.070,330.111 158.769,330.247 158.526 C 330.658 157.790,332.112 154.612,332.594 153.393 C 332.843 152.764,333.265 151.815,333.530 151.283 C 333.796 150.751,334.343 149.514,334.745 148.533 C 335.148 147.552,335.883 145.887,336.379 144.833 C 336.875 143.779,337.377 142.626,337.494 142.270 C 337.611 141.915,338.176 140.634,338.750 139.423 C 339.324 138.213,339.847 137.041,339.913 136.819 C 340.035 136.411,340.244 135.940,341.497 133.260 C 341.880 132.440,342.367 131.315,342.580 130.760 C 342.793 130.204,343.375 128.887,343.874 127.833 C 344.373 126.779,344.873 125.637,344.985 125.296 C 345.098 124.954,345.710 123.567,346.345 122.213 C 346.980 120.860,347.500 119.651,347.500 119.527 C 347.500 119.403,347.611 119.102,347.747 118.859 C 348.178 118.088,349.684 114.790,350.081 113.750 C 350.290 113.200,350.817 112.000,351.252 111.083 C 351.687 110.167,352.215 108.967,352.425 108.417 C 352.636 107.867,353.301 106.367,353.904 105.083 C 354.506 103.800,354.999 102.667,354.999 102.565 C 355.000 102.463,355.515 101.298,356.144 99.977 C 356.773 98.656,357.342 97.389,357.410 97.162 C 357.532 96.754,357.741 96.281,358.892 93.818 C 359.216 93.122,359.705 91.997,359.977 91.318 C 360.249 90.639,360.879 89.221,361.376 88.167 C 361.874 87.112,362.373 85.971,362.485 85.629 C 362.598 85.287,363.210 83.900,363.845 82.547 C 364.480 81.193,365.000 79.984,365.000 79.860 C 365.000 79.736,365.111 79.436,365.247 79.192 C 365.678 78.421,367.184 75.123,367.581 74.083 C 367.790 73.533,368.317 72.333,368.752 71.417 C 369.187 70.500,369.715 69.300,369.925 68.750 C 370.136 68.200,370.801 66.700,371.404 65.417 C 372.006 64.133,372.499 63.001,372.499 62.900 C 372.500 62.800,373.062 61.525,373.750 60.067 C 374.437 58.609,375.000 57.334,375.000 57.234 C 375.000 57.133,375.106 56.833,375.236 56.567 C 376.215 54.554,377.097 52.618,377.422 51.763 C 377.634 51.206,378.252 49.813,378.795 48.667 C 379.338 47.521,379.874 46.304,379.986 45.962 C 380.098 45.621,380.710 44.234,381.345 42.880 C 381.980 41.526,382.500 40.333,382.500 40.228 C 382.500 40.123,382.946 39.104,383.491 37.964 C 384.035 36.823,384.704 35.333,384.977 34.653 C 385.250 33.973,385.827 32.667,386.259 31.750 C 386.691 30.833,387.216 29.633,387.426 29.083 C 387.636 28.533,388.301 27.033,388.904 25.750 C 389.506 24.467,389.999 23.332,389.999 23.229 C 390.000 23.126,390.494 22.001,391.098 20.729 C 391.703 19.457,392.369 17.967,392.579 17.417 C 392.790 16.867,393.317 15.667,393.752 14.750 C 394.187 13.833,394.715 12.633,394.925 12.083 C 395.136 11.533,395.801 10.033,396.404 8.750 C 397.006 7.467,397.499 6.337,397.499 6.239 C 397.500 6.141,398.063 4.869,398.750 3.411 C 399.437 1.953,400.000 0.590,400.000 0.380 L 400.000 0.000 250.693 0.000 L 101.387 0.000 100.672 1.708 M388.614 7.042 C 388.566 7.156,387.913 8.637,387.164 10.333 C 386.415 12.029,385.290 14.579,384.665 16.000 C 384.040 17.421,382.917 19.971,382.169 21.667 C 381.421 23.363,380.435 25.613,379.977 26.667 C 379.519 27.721,378.742 29.483,378.251 30.583 C 376.622 34.229,375.293 37.238,374.903 38.167 L 374.517 39.083 254.800 39.181 C 149.461 39.267,134.913 39.309,133.667 39.529 C 132.887 39.666,131.275 39.946,130.083 40.151 C 128.892 40.356,127.579 40.641,127.167 40.785 C 126.754 40.929,125.367 41.340,124.083 41.698 C 122.605 42.111,121.414 42.555,120.833 42.909 C 120.329 43.217,119.129 43.788,118.167 44.179 C 117.204 44.570,115.874 45.253,115.212 45.697 C 114.549 46.142,113.813 46.580,113.576 46.670 C 112.343 47.138,108.762 49.512,106.177 51.575 C 104.666 52.781,101.167 56.521,99.926 58.257 C 96.611 62.895,96.810 62.578,94.347 67.167 C 91.058 73.294,89.000 81.695,89.000 88.991 C 89.000 96.812,91.844 106.958,95.753 113.083 C 96.221 113.817,96.994 115.092,97.471 115.917 C 98.924 118.432,102.502 122.882,104.235 124.330 C 104.511 124.561,105.003 125.043,105.327 125.402 C 105.651 125.761,111.091 130.898,117.416 136.819 C 131.879 150.357,131.306 149.819,131.909 150.433 C 132.188 150.717,136.654 154.911,141.833 159.754 C 152.246 169.488,152.326 169.570,152.941 170.947 C 153.377 171.922,154.214 174.479,154.408 175.426 C 154.597 176.346,153.745 179.415,153.047 180.333 C 152.872 180.563,152.403 181.286,152.004 181.941 C 151.493 182.780,151.107 183.213,150.698 183.408 C 150.378 183.560,149.973 183.868,149.796 184.093 C 149.620 184.317,149.326 184.500,149.143 184.500 C 148.960 184.500,148.497 184.712,148.113 184.972 C 146.468 186.086,151.601 186.000,86.954 186.000 L 28.514 186.000 29.026 184.875 C 29.610 183.590,31.651 178.964,32.830 176.250 C 33.268 175.242,33.904 173.817,34.244 173.083 C 34.584 172.350,35.012 171.375,35.194 170.917 C 35.377 170.458,36.003 169.033,36.584 167.750 C 37.165 166.467,38.032 164.517,38.511 163.417 C 38.989 162.317,39.863 160.329,40.453 159.000 C 41.043 157.671,41.899 155.721,42.356 154.667 C 42.813 153.612,43.625 151.775,44.162 150.583 C 45.606 147.375,47.138 143.906,47.694 142.583 C 47.964 141.942,48.622 140.442,49.156 139.250 C 50.699 135.809,52.002 132.858,52.615 131.417 C 52.927 130.683,53.623 129.108,54.162 127.917 C 54.701 126.725,55.533 124.850,56.011 123.750 C 56.489 122.650,57.363 120.662,57.953 119.333 C 58.543 118.004,59.399 116.054,59.856 115.000 C 60.313 113.946,61.126 112.108,61.662 110.917 C 62.879 108.215,64.370 104.833,65.116 103.083 C 65.429 102.350,66.089 100.850,66.584 99.750 C 68.449 95.598,69.726 92.711,70.195 91.583 C 70.462 90.942,71.121 89.442,71.659 88.250 C 72.198 87.058,73.033 85.183,73.515 84.083 C 73.997 82.983,74.872 80.996,75.459 79.667 C 76.046 78.337,76.999 76.162,77.577 74.833 C 78.154 73.504,78.942 71.742,79.329 70.917 C 79.715 70.092,80.131 69.141,80.254 68.804 C 80.376 68.467,80.963 67.117,81.557 65.804 C 82.731 63.211,83.464 61.555,85.082 57.833 C 85.660 56.504,86.448 54.742,86.833 53.917 C 87.219 53.092,87.634 52.141,87.755 51.804 C 87.877 51.467,88.463 50.117,89.057 48.804 C 89.651 47.491,90.532 45.517,91.014 44.417 C 91.497 43.317,92.372 41.329,92.959 40.000 C 93.546 38.671,94.499 36.496,95.077 35.167 C 95.654 33.837,96.442 32.075,96.829 31.250 C 97.215 30.425,97.631 29.474,97.754 29.138 C 97.876 28.801,98.463 27.451,99.057 26.138 C 100.231 23.545,100.964 21.888,102.582 18.167 C 103.160 16.837,103.945 15.076,104.326 14.253 C 104.708 13.429,105.216 12.267,105.454 11.669 C 105.692 11.072,106.283 9.740,106.767 8.708 L 107.647 6.833 248.175 6.833 C 360.533 6.833,388.685 6.875,388.614 7.042 M256.386 78.792 C 256.426 78.860,256.099 79.704,255.660 80.667 C 254.254 83.746,252.167 88.459,252.167 88.555 C 252.167 88.606,251.616 89.871,250.943 91.366 C 250.269 92.860,249.188 95.283,248.539 96.750 C 247.891 98.217,246.893 100.467,246.323 101.750 C 245.752 103.033,244.892 104.983,244.410 106.083 C 242.373 110.737,241.007 113.844,240.378 115.250 C 239.394 117.450,237.911 120.803,236.913 123.083 C 236.431 124.183,235.423 126.471,234.672 128.167 C 233.922 129.862,232.933 132.112,232.475 133.167 C 231.682 134.992,230.835 136.898,228.662 141.750 C 228.128 142.942,227.319 144.779,226.864 145.833 C 225.994 147.849,224.448 151.358,222.167 156.500 C 220.675 159.862,218.935 163.805,217.166 167.833 C 216.542 169.254,215.417 171.804,214.665 173.500 C 213.913 175.196,212.745 177.840,212.068 179.376 C 211.391 180.912,210.267 183.462,209.569 185.043 C 208.871 186.623,207.791 189.079,207.168 190.500 C 206.546 191.921,205.757 193.683,205.416 194.417 C 205.075 195.150,204.701 196.012,204.585 196.333 C 204.469 196.654,203.960 197.817,203.455 198.917 C 202.949 200.017,202.195 201.704,201.780 202.667 C 201.070 204.314,199.157 208.665,197.750 211.833 C 197.404 212.612,196.608 214.380,195.981 215.761 C 195.353 217.142,194.735 218.567,194.607 218.927 C 194.478 219.288,193.925 220.558,193.377 221.750 C 192.830 222.942,192.207 224.348,191.993 224.875 L 191.605 225.833 176.953 225.833 C 160.976 225.833,160.819 225.825,160.338 224.925 C 159.781 223.884,160.851 222.735,163.283 221.764 C 169.838 219.145,179.169 212.055,183.500 206.403 C 188.354 200.068,191.175 194.347,193.152 186.833 C 194.382 182.154,194.814 174.329,194.075 170.083 C 192.615 161.694,192.174 160.098,189.699 154.250 C 188.565 151.571,185.416 146.939,181.250 141.820 C 180.883 141.369,174.358 135.175,166.750 128.055 C 159.142 120.935,152.842 115.019,152.750 114.910 C 152.658 114.801,148.383 110.796,143.250 106.010 C 129.588 93.273,129.860 93.622,129.840 88.863 C 129.818 83.769,134.079 79.080,138.810 78.988 C 139.144 78.982,139.567 78.912,139.750 78.833 C 140.158 78.658,256.284 78.616,256.386 78.792 M356.919 78.837 C 356.977 78.931,356.564 80.023,356.000 81.262 C 355.437 82.502,354.864 83.794,354.726 84.133 C 354.588 84.472,354.000 85.800,353.418 87.083 C 352.837 88.367,351.747 90.804,350.996 92.500 C 349.426 96.044,348.171 98.863,346.579 102.417 C 345.963 103.792,345.202 105.517,344.888 106.250 C 344.574 106.983,343.877 108.558,343.339 109.750 C 341.976 112.769,340.995 114.970,339.584 118.167 C 338.917 119.679,337.925 121.929,337.378 123.167 C 336.832 124.404,335.998 126.248,335.526 127.264 C 335.053 128.280,334.667 129.158,334.667 129.216 C 334.667 129.274,334.116 130.543,333.443 132.036 C 331.313 136.759,329.369 141.127,327.328 145.775 C 326.799 146.981,326.027 148.706,325.613 149.609 C 325.198 150.511,324.430 152.225,323.905 153.417 C 323.380 154.608,322.467 156.671,321.875 158.000 C 321.283 159.329,320.440 161.242,320.001 162.250 C 319.562 163.258,318.745 165.081,318.185 166.300 C 317.625 167.519,317.167 168.557,317.167 168.607 C 317.167 168.657,316.604 169.919,315.917 171.411 C 315.229 172.904,314.667 174.168,314.667 174.221 C 314.667 174.274,314.208 175.314,313.648 176.533 C 313.088 177.753,312.270 179.575,311.831 180.583 C 310.080 184.600,309.008 187.009,308.109 188.949 C 307.591 190.066,307.167 191.031,307.167 191.092 C 307.167 191.154,306.649 192.339,306.016 193.727 C 304.996 195.964,304.358 197.392,301.499 203.833 C 301.113 204.704,300.403 206.317,299.921 207.417 C 299.440 208.517,298.623 210.333,298.106 211.453 C 297.589 212.572,297.167 213.537,297.167 213.596 C 297.167 213.656,296.649 214.839,296.016 216.227 C 294.112 220.400,292.047 225.059,291.925 225.458 L 291.811 225.833 262.989 225.833 C 247.137 225.833,234.167 225.775,234.167 225.704 C 234.167 225.467,236.405 220.321,239.004 214.583 C 239.544 213.392,240.410 211.442,240.928 210.250 C 243.043 205.384,243.654 203.998,244.474 202.213 C 244.947 201.184,245.333 200.295,245.333 200.236 C 245.333 200.177,245.852 198.994,246.487 197.606 C 247.121 196.219,248.031 194.183,248.510 193.083 C 248.989 191.983,249.863 189.996,250.453 188.667 C 251.043 187.338,251.900 185.387,252.357 184.333 C 252.815 183.279,253.629 181.442,254.166 180.250 C 255.352 177.621,256.911 174.111,258.090 171.417 C 258.571 170.317,259.528 168.142,260.216 166.583 C 260.904 165.025,261.915 162.730,262.464 161.484 C 263.012 160.237,263.909 158.212,264.457 156.984 C 266.931 151.436,269.033 146.687,270.242 143.917 C 270.722 142.817,271.502 141.075,271.974 140.046 C 272.447 139.018,272.833 138.136,272.833 138.087 C 272.833 138.038,273.217 137.154,273.686 136.124 C 274.542 134.242,276.345 130.165,277.831 126.750 C 278.270 125.742,278.945 124.242,279.332 123.417 C 279.718 122.592,280.134 121.641,280.255 121.304 C 280.377 120.967,280.963 119.617,281.557 118.304 C 282.856 115.435,284.399 111.970,285.590 109.250 C 286.872 106.321,288.775 102.011,290.337 98.500 C 291.091 96.804,291.970 94.817,292.289 94.083 C 292.609 93.350,293.209 92.000,293.623 91.083 C 294.037 90.167,294.695 88.667,295.085 87.750 C 295.474 86.833,296.215 85.166,296.731 84.044 C 297.247 82.923,297.818 81.628,298.000 81.166 C 298.182 80.704,298.520 79.953,298.752 79.497 L 299.172 78.667 327.993 78.667 C 347.491 78.667,356.848 78.722,356.919 78.837 " stroke="none" fill="#fcfcfc" fill-rule="evenodd"></path><path id="path2" d="M107.609 6.958 C 107.567 7.027,170.689 7.064,247.881 7.041 C 360.086 7.008,388.257 7.041,388.362 7.208 C 388.457 7.357,388.496 7.333,388.497 7.125 C 388.500 6.816,107.800 6.649,107.609 6.958 M255.583 39.000 L 136.750 39.084 255.532 39.125 C 334.585 39.153,374.348 39.111,374.417 39.000 C 374.473 38.908,374.496 38.852,374.468 38.875 C 374.440 38.898,320.942 38.954,255.583 39.000 M103.740 53.542 L 103.250 54.083 103.792 53.594 C 104.090 53.325,104.333 53.081,104.333 53.052 C 104.333 52.923,104.196 53.037,103.740 53.542 M101.242 56.375 L 100.583 57.083 101.292 56.425 C 101.950 55.812,102.077 55.667,101.950 55.667 C 101.923 55.667,101.605 55.985,101.242 56.375 M93.531 68.258 C 93.029 69.292,93.085 69.436,93.603 68.442 C 93.834 67.998,93.994 67.606,93.960 67.571 C 93.925 67.536,93.732 67.845,93.531 68.258 M138.460 79.118 C 138.668 79.158,138.968 79.156,139.127 79.115 C 139.286 79.073,139.117 79.040,138.750 79.042 C 138.383 79.044,138.253 79.078,138.460 79.118 M132.658 81.958 L 132.083 82.583 132.708 82.009 C 133.290 81.474,133.410 81.333,133.283 81.333 C 133.255 81.333,132.974 81.615,132.658 81.958 M131.360 83.590 C 131.081 84.203,131.134 84.334,131.436 83.777 C 131.577 83.517,131.662 83.273,131.623 83.235 C 131.585 83.196,131.467 83.357,131.360 83.590 M88.906 89.000 C 88.906 91.337,88.929 92.294,88.958 91.125 C 88.987 89.956,88.987 88.044,88.958 86.875 C 88.929 85.706,88.906 86.662,88.906 89.000 M133.417 96.667 C 134.146 97.400,134.780 98.000,134.826 98.000 C 134.871 98.000,134.312 97.400,133.583 96.667 C 132.854 95.933,132.220 95.333,132.174 95.333 C 132.129 95.333,132.688 95.933,133.417 96.667 M136.500 99.583 C 136.998 100.087,137.443 100.500,137.489 100.500 C 137.534 100.500,137.165 100.087,136.667 99.583 C 136.169 99.079,135.724 98.667,135.678 98.667 C 135.632 98.667,136.002 99.079,136.500 99.583 M139.167 102.083 C 139.665 102.587,140.109 103.000,140.155 103.000 C 140.201 103.000,139.831 102.587,139.333 102.083 C 138.835 101.579,138.391 101.167,138.345 101.167 C 138.299 101.167,138.669 101.579,139.167 102.083 M142.000 104.750 C 142.498 105.254,142.943 105.667,142.989 105.667 C 143.034 105.667,142.665 105.254,142.167 104.750 C 141.669 104.246,141.224 103.833,141.178 103.833 C 141.132 103.833,141.502 104.246,142.000 104.750 M144.750 107.333 C 145.201 107.792,145.608 108.167,145.654 108.167 C 145.700 108.167,145.368 107.792,144.917 107.333 C 144.465 106.875,144.058 106.500,144.013 106.500 C 143.967 106.500,144.299 106.875,144.750 107.333 M147.493 109.875 C 147.902 110.310,148.258 110.667,148.285 110.667 C 148.410 110.667,148.278 110.517,147.542 109.826 L 146.750 109.083 147.493 109.875 M150.326 112.542 C 150.735 112.977,151.091 113.333,151.118 113.333 C 151.243 113.333,151.111 113.184,150.375 112.493 L 149.583 111.750 150.326 112.542 M152.993 115.042 C 153.402 115.477,153.758 115.833,153.785 115.833 C 153.910 115.833,153.778 115.684,153.042 114.993 L 152.250 114.250 152.993 115.042 M155.660 117.542 C 156.068 117.977,156.425 118.333,156.451 118.333 C 156.577 118.333,156.444 118.184,155.708 117.493 L 154.917 116.750 155.660 117.542 M158.326 120.042 C 158.735 120.477,159.091 120.833,159.118 120.833 C 159.243 120.833,159.111 120.684,158.375 119.993 L 157.583 119.250 158.326 120.042 M101.167 121.250 C 101.478 121.571,101.770 121.833,101.815 121.833 C 101.861 121.833,101.644 121.571,101.333 121.250 C 101.022 120.929,100.730 120.667,100.685 120.667 C 100.639 120.667,100.856 120.929,101.167 121.250 M160.993 122.542 C 161.402 122.977,161.758 123.333,161.785 123.333 C 161.910 123.333,161.778 123.184,161.042 122.493 L 160.250 121.750 160.993 122.542 M163.660 125.042 C 164.068 125.477,164.425 125.833,164.451 125.833 C 164.577 125.833,164.444 125.684,163.708 124.993 L 162.917 124.250 163.660 125.042 M104.833 125.083 C 105.144 125.404,105.436 125.667,105.482 125.667 C 105.528 125.667,105.311 125.404,105.000 125.083 C 104.689 124.763,104.397 124.500,104.351 124.500 C 104.305 124.500,104.522 124.763,104.833 125.083 M166.326 127.542 C 166.735 127.977,167.091 128.333,167.118 128.333 C 167.243 128.333,167.111 128.184,166.375 127.493 L 165.583 126.750 166.326 127.542 M108.000 128.250 C 108.498 128.754,108.943 129.167,108.989 129.167 C 109.034 129.167,108.665 128.754,108.167 128.250 C 107.669 127.746,107.224 127.333,107.178 127.333 C 107.132 127.333,107.502 127.746,108.000 128.250 M168.993 130.042 C 169.684 130.778,169.833 130.910,169.833 130.785 C 169.833 130.758,169.477 130.402,169.042 129.993 L 168.250 129.250 168.993 130.042 M110.667 130.750 C 111.165 131.254,111.609 131.667,111.655 131.667 C 111.701 131.667,111.331 131.254,110.833 130.750 C 110.335 130.246,109.891 129.833,109.845 129.833 C 109.799 129.833,110.169 130.246,110.667 130.750 M171.583 132.500 C 171.941 132.867,172.272 133.167,172.318 133.167 C 172.363 133.167,172.108 132.867,171.750 132.500 C 171.392 132.133,171.062 131.833,171.016 131.833 C 170.970 131.833,171.225 132.133,171.583 132.500 M113.333 133.250 C 113.831 133.754,114.276 134.167,114.322 134.167 C 114.368 134.167,113.998 133.754,113.500 133.250 C 113.002 132.746,112.557 132.333,112.511 132.333 C 112.466 132.333,112.835 132.746,113.333 133.250 M174.250 135.000 C 174.608 135.367,174.938 135.667,174.984 135.667 C 175.030 135.667,174.775 135.367,174.417 135.000 C 174.059 134.633,173.728 134.333,173.682 134.333 C 173.637 134.333,173.892 134.633,174.250 135.000 M115.833 135.583 C 116.331 136.087,116.776 136.500,116.822 136.500 C 116.868 136.500,116.498 136.087,116.000 135.583 C 115.502 135.079,115.057 134.667,115.011 134.667 C 114.966 134.667,115.335 135.079,115.833 135.583 M176.993 137.542 C 177.684 138.278,177.833 138.410,177.833 138.285 C 177.833 138.258,177.477 137.902,177.042 137.493 L 176.250 136.750 176.993 137.542 M118.500 138.083 C 118.998 138.587,119.443 139.000,119.489 139.000 C 119.534 139.000,119.165 138.587,118.667 138.083 C 118.169 137.579,117.724 137.167,117.678 137.167 C 117.632 137.167,118.002 137.579,118.500 138.083 M179.660 140.042 C 180.350 140.778,180.500 140.910,180.500 140.785 C 180.500 140.758,180.144 140.402,179.708 139.993 L 178.917 139.250 179.660 140.042 M121.167 140.583 C 121.665 141.087,122.109 141.500,122.155 141.500 C 122.201 141.500,121.831 141.087,121.333 140.583 C 120.835 140.079,120.391 139.667,120.345 139.667 C 120.299 139.667,120.669 140.079,121.167 140.583 M123.750 143.000 C 124.201 143.458,124.608 143.833,124.654 143.833 C 124.700 143.833,124.368 143.458,123.917 143.000 C 123.465 142.542,123.058 142.167,123.013 142.167 C 122.967 142.167,123.299 142.542,123.750 143.000 M126.417 145.500 C 126.868 145.958,127.275 146.333,127.321 146.333 C 127.367 146.333,127.035 145.958,126.583 145.500 C 126.132 145.042,125.725 144.667,125.679 144.667 C 125.633 144.667,125.965 145.042,126.417 145.500 M128.993 147.875 C 129.402 148.310,129.758 148.667,129.785 148.667 C 129.910 148.667,129.778 148.517,129.042 147.826 L 128.250 147.083 128.993 147.875 M131.493 150.208 C 131.902 150.644,132.258 151.000,132.285 151.000 C 132.410 151.000,132.278 150.850,131.542 150.160 L 130.750 149.417 131.493 150.208 M134.160 152.708 C 134.850 153.444,135.000 153.577,135.000 153.451 C 135.000 153.425,134.644 153.068,134.208 152.660 L 133.417 151.917 134.160 152.708 M136.826 155.208 C 137.235 155.644,137.591 156.000,137.618 156.000 C 137.743 156.000,137.611 155.850,136.875 155.160 L 136.083 154.417 136.826 155.208 M139.493 157.708 C 140.184 158.444,140.333 158.577,140.333 158.451 C 140.333 158.425,139.977 158.068,139.542 157.660 L 138.750 156.917 139.493 157.708 M142.160 160.208 C 142.568 160.644,142.925 161.000,142.951 161.000 C 143.077 161.000,142.944 160.850,142.208 160.160 L 141.417 159.417 142.160 160.208 M144.917 162.833 C 145.368 163.292,145.775 163.667,145.821 163.667 C 145.867 163.667,145.535 163.292,145.083 162.833 C 144.632 162.375,144.225 162.000,144.179 162.000 C 144.133 162.000,144.465 162.375,144.917 162.833 M147.667 165.417 C 148.165 165.921,148.609 166.333,148.655 166.333 C 148.701 166.333,148.331 165.921,147.833 165.417 C 147.335 164.912,146.891 164.500,146.845 164.500 C 146.799 164.500,147.169 164.912,147.667 165.417 M149.333 166.879 C 149.333 166.904,149.915 167.486,150.625 168.171 L 151.917 169.417 150.671 168.125 C 149.514 166.925,149.333 166.757,149.333 166.879 M194.539 173.833 C 194.539 174.154,194.573 174.285,194.615 174.125 C 194.657 173.965,194.657 173.702,194.615 173.542 C 194.573 173.381,194.539 173.512,194.539 173.833 M194.539 176.000 C 194.539 176.321,194.573 176.452,194.615 176.292 C 194.657 176.131,194.657 175.869,194.615 175.708 C 194.573 175.548,194.539 175.679,194.539 176.000 M194.372 178.333 C 194.372 178.654,194.406 178.785,194.448 178.625 C 194.490 178.465,194.490 178.202,194.448 178.042 C 194.406 177.881,194.372 178.012,194.372 178.333 M194.209 180.750 C 194.211 181.117,194.245 181.247,194.285 181.040 C 194.324 180.832,194.323 180.532,194.281 180.373 C 194.239 180.214,194.207 180.383,194.209 180.750 M180.413 210.042 L 178.917 211.583 180.458 210.087 C 181.306 209.264,182.000 208.570,182.000 208.545 C 182.000 208.424,181.803 208.610,180.413 210.042 M160.991 223.125 L 160.417 223.750 161.042 223.176 C 161.623 222.641,161.743 222.500,161.616 222.500 C 161.588 222.500,161.307 222.781,160.991 223.125 M191.500 225.472 C 191.500 225.619,187.864 225.677,176.792 225.707 L 162.083 225.748 176.741 225.792 C 190.631 225.833,192.018 225.796,191.614 225.392 C 191.551 225.329,191.500 225.365,191.500 225.472 M234.167 225.708 C 234.167 225.777,247.123 225.815,262.958 225.793 C 278.794 225.771,287.100 225.733,281.417 225.710 C 253.973 225.596,234.167 225.595,234.167 225.708 " stroke="none" fill="#a0cefc" fill-rule="evenodd"></path><path id="path3" d="M129.875 87.917 C 129.877 88.283,129.911 88.414,129.951 88.206 C 129.991 87.999,129.990 87.699,129.948 87.540 C 129.906 87.380,129.874 87.550,129.875 87.917 M172.917 133.833 C 173.275 134.200,173.605 134.500,173.651 134.500 C 173.697 134.500,173.441 134.200,173.083 133.833 C 172.725 133.467,172.395 133.167,172.349 133.167 C 172.303 133.167,172.559 133.467,172.917 133.833 M175.583 136.333 C 175.941 136.700,176.272 137.000,176.318 137.000 C 176.363 137.000,176.108 136.700,175.750 136.333 C 175.392 135.967,175.062 135.667,175.016 135.667 C 174.970 135.667,175.225 135.967,175.583 136.333 M178.333 138.917 C 178.644 139.237,178.936 139.500,178.982 139.500 C 179.028 139.500,178.811 139.237,178.500 138.917 C 178.189 138.596,177.897 138.333,177.851 138.333 C 177.805 138.333,178.022 138.596,178.333 138.917 " stroke="none" fill="#bddcfc" fill-rule="evenodd"></path><path id="path4" d="M103.909 53.542 L 103.250 54.250 103.958 53.591 C 104.617 52.978,104.743 52.833,104.617 52.833 C 104.590 52.833,104.271 53.152,103.909 53.542 M161.000 78.791 C 217.515 78.904,256.461 78.905,256.391 78.792 C 256.348 78.723,230.124 78.685,198.115 78.708 C 166.106 78.730,149.404 78.768,161.000 78.791 M313.542 78.792 C 321.494 78.816,334.506 78.816,342.458 78.792 C 350.410 78.768,343.904 78.748,328.000 78.748 C 312.096 78.748,305.590 78.768,313.542 78.792 M133.326 96.708 C 133.735 97.144,134.091 97.500,134.118 97.500 C 134.243 97.500,134.111 97.350,133.375 96.660 L 132.583 95.917 133.326 96.708 M135.917 99.167 C 136.275 99.533,136.605 99.833,136.651 99.833 C 136.697 99.833,136.441 99.533,136.083 99.167 C 135.725 98.800,135.395 98.500,135.349 98.500 C 135.303 98.500,135.559 98.800,135.917 99.167 M138.667 101.750 C 138.978 102.071,139.270 102.333,139.315 102.333 C 139.361 102.333,139.144 102.071,138.833 101.750 C 138.522 101.429,138.230 101.167,138.185 101.167 C 138.139 101.167,138.356 101.429,138.667 101.750 M141.333 104.250 C 141.644 104.571,141.936 104.833,141.982 104.833 C 142.028 104.833,141.811 104.571,141.500 104.250 C 141.189 103.929,140.897 103.667,140.851 103.667 C 140.805 103.667,141.022 103.929,141.333 104.250 M154.917 117.000 C 155.368 117.458,155.775 117.833,155.821 117.833 C 155.867 117.833,155.535 117.458,155.083 117.000 C 154.632 116.542,154.225 116.167,154.179 116.167 C 154.133 116.167,154.465 116.542,154.917 117.000 M157.667 119.583 C 158.165 120.087,158.609 120.500,158.655 120.500 C 158.701 120.500,158.331 120.087,157.833 119.583 C 157.335 119.079,156.891 118.667,156.845 118.667 C 156.799 118.667,157.169 119.079,157.667 119.583 M160.333 122.083 C 160.831 122.587,161.276 123.000,161.322 123.000 C 161.368 123.000,160.998 122.587,160.500 122.083 C 160.002 121.579,159.557 121.167,159.511 121.167 C 159.466 121.167,159.835 121.579,160.333 122.083 M163.000 124.583 C 163.498 125.087,163.943 125.500,163.989 125.500 C 164.034 125.500,163.665 125.087,163.167 124.583 C 162.669 124.079,162.224 123.667,162.178 123.667 C 162.132 123.667,162.502 124.079,163.000 124.583 M165.667 127.083 C 166.165 127.587,166.609 128.000,166.655 128.000 C 166.701 128.000,166.331 127.587,165.833 127.083 C 165.335 126.579,164.891 126.167,164.845 126.167 C 164.799 126.167,165.169 126.579,165.667 127.083 M108.167 128.219 C 108.167 128.248,108.410 128.491,108.708 128.760 L 109.250 129.250 108.760 128.708 C 108.304 128.203,108.167 128.090,108.167 128.219 M168.250 129.500 C 168.794 130.050,169.277 130.500,169.323 130.500 C 169.369 130.500,168.961 130.050,168.417 129.500 C 167.872 128.950,167.390 128.500,167.344 128.500 C 167.298 128.500,167.706 128.950,168.250 129.500 M110.833 130.719 C 110.833 130.748,111.077 130.991,111.375 131.260 L 111.917 131.750 111.427 131.208 C 110.971 130.703,110.833 130.590,110.833 130.719 M171.000 132.083 C 171.498 132.587,171.943 133.000,171.989 133.000 C 172.034 133.000,171.665 132.587,171.167 132.083 C 170.669 131.579,170.224 131.167,170.178 131.167 C 170.132 131.167,170.502 131.579,171.000 132.083 M113.833 133.583 C 114.144 133.904,114.436 134.167,114.482 134.167 C 114.528 134.167,114.311 133.904,114.000 133.583 C 113.689 133.262,113.397 133.000,113.351 133.000 C 113.305 133.000,113.522 133.262,113.833 133.583 M116.500 136.083 C 116.811 136.404,117.103 136.667,117.149 136.667 C 117.195 136.667,116.978 136.404,116.667 136.083 C 116.356 135.762,116.064 135.500,116.018 135.500 C 115.972 135.500,116.189 135.762,116.500 136.083 M119.167 138.583 C 119.478 138.904,119.770 139.167,119.815 139.167 C 119.861 139.167,119.644 138.904,119.333 138.583 C 119.022 138.262,118.730 138.000,118.685 138.000 C 118.639 138.000,118.856 138.262,119.167 138.583 M121.750 141.000 C 122.108 141.367,122.438 141.667,122.484 141.667 C 122.530 141.667,122.275 141.367,121.917 141.000 C 121.559 140.633,121.228 140.333,121.182 140.333 C 121.137 140.333,121.392 140.633,121.750 141.000 M124.326 143.375 C 124.735 143.810,125.091 144.167,125.118 144.167 C 125.243 144.167,125.111 144.017,124.375 143.326 L 123.583 142.583 124.326 143.375 M126.993 145.875 C 127.402 146.310,127.758 146.667,127.785 146.667 C 127.910 146.667,127.778 146.517,127.042 145.826 L 126.250 145.083 126.993 145.875 M181.244 209.042 L 180.417 209.917 181.292 209.090 C 181.773 208.635,182.167 208.241,182.167 208.215 C 182.167 208.090,182.012 208.229,181.244 209.042 " stroke="none" fill="#ddedfc" fill-rule="evenodd"></path></g></svg>