<svg xmlns="http://www.w3.org/2000/svg" viewBox="0 0 200 200"><path fill="#eeeff0" stroke="#eeeff0" d="M149 45.896c-3.575 1.035-8.3 2.538-10.5 3.34l-4 1.459-.292 7.653c-.161 4.208-.035 7.652.278 7.652.314 0 3.169-1.312 6.345-2.915 26.501-13.377 49.347-3.267 43.137 19.091-1.841 6.627-8.51 15.006-29.939 37.613l-21.127 22.288.299 5.712.299 5.711 33.25.263 33.25.264.011-3.764c.006-2.069.235-5.563.509-7.763s.232-3.437-.094-2.75c-.45.949-6.383 1.25-24.633 1.25h-24.041l14.402-15.25c22.411-23.731 25.716-27.707 29.661-35.694 8.601-17.41 2.452-35.619-14.639-43.349-6.674-3.018-23.118-3.432-32.176-.811M4.645 53.007c-10.868 9.542 1.503 26.741 13.457 18.71 5.03-3.379 6.863-9.251 4.514-14.461-3.435-7.616-11.866-9.61-17.971-4.249m41.236-1.504c-5.57 3.027-7.316 11.071-3.601 16.585 4.066 6.033 9.697 7.443 15.53 3.886 12.963-7.903 1.414-27.722-11.929-20.471m40 0c-5.57 3.027-7.316 11.071-3.601 16.585 4.163 6.177 10.032 7.522 15.822 3.625 12.33-8.297.836-27.305-12.221-20.21M8 90.656C2.48 92.859-.85 99.895.989 105.467c3.617 10.96 17.561 11.277 22.024.501C26.496 97.559 16.429 87.291 8 90.656m39.03.569c-7.697 4.063-8.981 13.683-2.606 19.524 6.486 5.944 15.751 3.311 18.587-5.282 3.078-9.327-7.475-18.732-15.981-14.242m38.585.863c-5.321 4.185-6.783 9.648-4.099 15.305 4.546 9.578 18.559 8.237 21.399-2.048 2.85-10.323-9.246-19.592-17.3-13.257M6.314 131.95C2.129 134.502 1 136.82 1 142.857c0 10.328 11.658 15.331 18.885 8.104 9.837-9.837-1.825-26.173-13.571-19.011m39.876.024c-6.788 4.244-7.776 13.286-2.075 18.987 6.395 6.395 17.601 2.699 19.301-6.366 1.86-9.915-8.921-17.814-17.226-12.621m40.047.023C75.951 138.269 79.73 154 91.523 154c3.986 0 5.18-.503 8.077-3.4 9.755-9.755-1.706-25.71-13.363-18.603" fill-rule="evenodd"/><path fill="#fcfcfc" stroke="#fcfcfc" d="M149.812 45.972c-14.266 3.625-15.263 4.41-15.608 12.282-.337 7.686-.186 7.784 6.622 4.334 23.587-11.952 44.234-5.533 44.152 13.727-.042 9.913-5.16 17.063-33.377 46.626L134 141.382V154h66v-11.965l-24.538-.268-24.537-.267 17.787-18.865c27.058-28.696 30.542-34.22 30.526-48.391-.027-22.559-22.137-35.206-49.426-28.272M6.314 51.894c-7.734 4.852-7.136 16.59 1.043 20.471C15.368 76.166 23 70.653 23 61.065c0-8.498-9.466-13.701-16.686-9.171m41.074-.914c-6.134 2.479-8.482 12.27-4.338 18.091C49.205 77.714 63 72.904 63 62.115c0-8.684-7.84-14.275-15.612-11.135m39.708.285c-8.813 4.529-8.456 17.598.585 21.375 4.743 1.982 8.578.968 12.277-3.245 8.175-9.311-2.03-23.697-12.862-18.13M7.452 91.406c-9.582 4.174-8.245 19.6 1.92 22.151 6.655 1.67 13.628-3.718 13.628-10.53 0-9.604-7.429-15.158-15.548-11.621m39.926.031C36.551 96.149 40.208 114 52 114c11.552 0 15.136-18.121 4.466-22.579-4.129-1.725-5.092-1.723-9.088.016m38.52.85c-11.819 7.953-1.475 26.717 11.135 20.196 8.069-4.173 7.83-16.947-.39-20.848-4.615-2.19-6.711-2.063-10.745.652M6.42 132.145C.211 135.158-.9 145.3 4.4 150.6c9.316 9.316 23.019-1.806 17.405-14.128-2.152-4.723-10.012-6.934-15.385-4.327m38.947.627c-8.917 7.223-3.645 22.196 7.378 20.953 10.045-1.132 13.974-12.206 6.855-19.325-3.965-3.965-10.434-4.705-14.233-1.628m38.836 1.179c-5.139 5.139-4.747 12.731.903 17.485 7.557 6.359 17.894.59 17.894-9.986 0-9.112-12.284-14.013-18.797-7.499" fill-rule="evenodd"/><path fill="#6b7587" stroke="#6b7587" d="M152.654 45.632c-3.766.807-9.278 2.378-12.25 3.49L135 51.144v13.731l6.554-2.972c24.681-11.191 43.892-4.959 43.711 14.179-.099 10.496-5.058 17.272-37.515 51.258L134 141.738V154h66v-12h-24.5c-13.475 0-24.5-.266-24.5-.591 0-.326 6.919-7.863 15.376-16.75 28.358-29.801 31.666-34.674 32.423-47.752 1.365-23.57-18.693-37.164-46.145-31.275M7.315 51.464C-3.242 56.055.445 73 12 73c11.704 0 15.238-17.078 4.466-21.579-4.14-1.729-5.087-1.725-9.151.043m40 0C36.833 56.022 40.436 73 51.884 73c11.677 0 15.307-17.097 4.582-21.579-4.14-1.729-5.087-1.725-9.151.043m40.063-.027C76.79 56.045 80.17 73 91.677 73c11.762 0 15.467-16.382 4.845-21.423-3.988-1.892-5.08-1.909-9.144-.14M4.4 94.4c-7.158 7.158-2.431 18.933 7.6 18.933 6.319 0 11-4.842 11-11.379C23 91.909 11.544 87.256 4.4 94.4m41.554-2.118c-11.714 9.231-.381 27.221 12.106 19.218 9.118-5.844 4.657-20.548-6.21-20.468-2.392.017-5.046.58-5.896 1.25m39.413.49c-9.294 7.529-2.686 22.732 8.916 20.514 8.172-1.562 11.278-13.715 4.951-19.368-3.87-3.458-10.351-3.993-13.867-1.146M4.954 133.75c-5.822 5.203-4.744 15.239 2.013 18.733 11.303 5.845 21.691-9.025 12.633-18.083-4.501-4.501-10.06-4.748-14.646-.65m39.446.65c-9.124 9.124 1.248 23.971 12.633 18.083C67.274 147.187 63.239 131 51.677 131c-3.076 0-4.579.702-7.277 3.4m40 0c-9.196 9.196 1.158 24.017 12.633 18.083 10.241-5.296 6.206-21.483-5.356-21.483-3.076 0-4.579.702-7.277 3.4" fill-rule="evenodd"/><path fill="#25354d" stroke="#25354d" d="M153.5 45.428c-.55.206-4.937 1.559-9.75 3.006L135 51.065V64.87l7.25-3.31c22.726-10.376 41.123-5.466 43.317 11.56 1.389 10.777-3.155 17.733-30.499 46.691L134 142.123V153h66v-11h-24.583c-13.626 0-24.435-.39-24.25-.875.183-.481 8.43-9.508 18.327-20.061 19.726-21.035 25.794-28.927 28.03-36.458 4.577-15.412-1.965-30.423-16.024-36.766-4.639-2.094-24.328-3.789-28-2.412M4.954 53.75c-8.685 7.761-.919 21.824 10.278 18.612C26.801 69.044 24.071 51 12 51c-2.916 0-4.784.729-7.046 2.75m39.038.912c-2.871 3.27-3.161 4.15-2.702 8.218 1.207 10.706 14.115 13.904 19.762 4.895 7.086-11.304-8.279-23.114-17.06-13.113m40.624-1.005c-9.538 9.538 1.621 24.374 13.08 17.387 4.199-2.561 6.175-8.528 4.311-13.026-2.998-7.239-12.205-9.548-17.391-4.361M5.77 92.966C.019 97.49-.298 105.889 5.111 110.44c8.591 7.228 21.176-2.09 16.868-12.491-2.737-6.608-10.938-9.129-16.209-4.983m38.996.952C37.367 100.529 42.156 113 52.093 113c6.745 0 12.126-7.008 10.464-13.628-2.024-8.063-11.589-10.996-17.791-5.454M84.4 94.4c-6.95 6.95-2.337 18.6 7.365 18.6 7.539 0 12.527-6.744 10.354-13.998-2.535-8.46-11.526-10.795-17.719-4.602M6.42 132.885c-11.321 6.904-2.113 25.334 9.827 19.668 8.41-3.991 8.875-15.853.786-20.036-3.891-2.012-6.879-1.908-10.613.368m40.343-.32c-1.506.817-3.419 2.802-4.25 4.411-5.83 11.274 8.019 22.219 16.89 13.348 8.937-8.936-1.605-23.747-12.64-17.759m39.462.439c-7.563 4.611-6.685 16.234 1.483 19.648 4.358 1.82 7.86 1.092 11.53-2.398 9.536-9.071-1.794-24.09-13.013-17.25" fill-rule="evenodd"/></svg>