<svg width="400" height="400" viewBox="0 0 400 400" fill="none" xmlns="http://www.w3.org/2000/svg">
<path fill-rule="evenodd" clip-rule="evenodd" d="M142.319 266.634V336.156L99.0148 360.81C97.4463 361.673 95.6498 362.163 93.741 362.163C87.8125 362.163 82.9656 357.435 82.6782 351.501L82.6582 351.485L82.6577 308.466L82.6588 308.465L82.6594 307.196C82.6594 302.732 85.2388 298.874 88.9688 297.068L142.319 266.634Z" fill="url(#paint0_linear_917_15)"/>
<path fill-rule="evenodd" clip-rule="evenodd" d="M98.8332 38.5921C99.0379 38.7016 142.319 63.6454 142.319 63.6454C142.319 63.6454 142.318 116.997 142.318 127.076C142.318 128.086 141.782 129.02 140.909 129.529C133.516 133.842 99.095 153.921 86.9301 161.017C86.0515 161.53 84.9659 161.533 84.0837 161.027C83.2017 160.52 82.6577 159.58 82.6577 158.563C82.6577 136.517 82.6577 48.2887 82.6577 48.2887L82.6758 48.2667C82.7992 42.1974 87.6931 37.3087 93.7034 37.3087C95.0945 37.3087 96.4261 37.5707 97.6523 38.0486L98.8332 38.5921Z" fill="url(#paint1_linear_917_15)"/>
<path fill-rule="evenodd" clip-rule="evenodd" d="M82.6588 307.261C82.6588 307.402 82.658 260.176 82.6577 240.734C82.6576 235.655 85.3697 230.962 89.7707 228.426C111.987 215.625 179.653 176.635 197.326 166.451C198.205 165.945 199.288 165.945 200.166 166.453C201.045 166.961 201.586 167.898 201.586 168.913C201.586 182.932 201.586 222.653 201.586 231.241C201.586 232.261 201.038 233.203 200.152 233.708C187.078 241.166 88.9681 297.132 88.9681 297.132C85.2381 298.939 82.6588 302.797 82.6588 307.261Z" fill="url(#paint2_linear_917_15)"/>
<path fill-rule="evenodd" clip-rule="evenodd" d="M99.1626 360.669L99.1724 360.674C99.1724 360.674 223.141 289.352 254.464 271.332C258.869 268.797 261.585 264.102 261.585 259.019C261.585 234.92 261.585 164.603 261.585 140.504C261.585 135.421 258.869 130.726 254.464 128.191C223.135 110.167 99.1169 38.8171 99.1169 38.8171L99.1083 38.8224C97.486 37.8783 95.6059 37.3382 93.6023 37.3382C92.4663 37.3382 90.4821 37.8559 89.4502 38.1783C89.4502 38.1783 128.744 15.5757 145.17 6.12664C149.556 3.60358 154.954 3.60439 159.339 6.12835C186.78 21.9222 285.914 78.9802 313.416 94.8092C317.821 97.344 320.535 102.039 320.535 107.12C320.535 139.884 320.535 261.04 320.535 293.816C320.535 298.901 317.817 303.599 313.407 306.132C286.035 321.86 187.841 378.28 160.586 393.941C156.212 396.454 150.834 396.459 146.456 393.955C129.692 384.366 88.9189 361.045 88.9189 361.045C90.3631 361.744 91.9797 362.136 93.6859 362.136C95.6775 362.136 97.5469 361.602 99.1626 360.669Z" fill="url(#paint3_linear_917_15)"/>
<defs>
<linearGradient id="paint0_linear_917_15" x1="131.141" y1="342.61" x2="100.863" y2="290.167" gradientUnits="userSpaceOnUse">
<stop stop-color="#DAC286"/>
<stop offset="1" stop-color="#8E783E"/>
</linearGradient>
<linearGradient id="paint1_linear_917_15" x1="79.0036" y1="158.669" x2="128.537" y2="52.4435" gradientUnits="userSpaceOnUse">
<stop offset="0.181679" stop-color="#DAC286"/>
<stop offset="1" stop-color="#917C44"/>
</linearGradient>
<linearGradient id="paint2_linear_917_15" x1="91.1581" y1="312.781" x2="190.334" y2="160.063" gradientUnits="userSpaceOnUse">
<stop stop-color="#DAC286"/>
<stop offset="0.278147" stop-color="#C9B276"/>
<stop offset="1" stop-color="#A08A51"/>
</linearGradient>
<linearGradient id="paint3_linear_917_15" x1="204.727" y1="4.23486" x2="204.727" y2="395.829" gradientUnits="userSpaceOnUse">
<stop stop-color="#DAC286"/>
<stop offset="0.222945" stop-color="#CFB77B"/>
<stop offset="0.615668" stop-color="#B19A5F"/>
<stop offset="1" stop-color="#8E783E"/>
</linearGradient>
</defs>
</svg>
