<svg xmlns="http://www.w3.org/2000/svg" viewBox="0 0 640 480"><path fill="#fbfbfb" stroke="#fbfbfb" d="M176.108 18.617c-1.435.615-8.008 4.477-14.608 8.584-6.6 4.106-14.025 8.616-16.5 10.023-6.998 3.977-20.811 12.292-28.245 17.002L110.01 58.5l.007 156.25c.006 114.167.308 156.25 1.122 156.25 1.097 0 10.184-5.285 26.861-15.622l8.5-5.268.5 48.86.5 48.861 3.039 4.322c1.672 2.378 5.047 5.679 7.5 7.335l4.461 3.012h367l.253-187.724.252-187.724-15.252-.276L499.5 86.5 499 60c-.527-27.921-.512-27.83-5.677-34.751-5.463-7.32 8.548-6.692-161.715-7.249-111.411-.364-153.6-.197-155.5.617M292 174v86h43v-70h56v-29h-56l-.149-4.75c-.258-8.264-.278-17.426-.061-27.987l.21-10.236 33.25-.264 33.25-.263.277-14.75.276-14.75H292v86m-20.5 187.871c-6.507 1.702-10.805 4.54-13.635 9.003-4.52 7.127-4.076 8.126 3.609 8.126 6.142 0 6.552-.15 7.983-2.917 4.222-8.165 16.543-5.522 16.543 3.549 0 5.183-2.519 7.334-9.514 8.123l-4.486.505V398h4.55c8.225 0 11.45 2.798 11.45 9.936 0 5.859-3.535 9.064-9.998 9.064-5.035 0-10.002-2.957-10.002-5.955 0-.627-2.797-1.045-7-1.045-7.619 0-7.789.176-5.493 5.671 5.946 14.231 35.374 16.136 44.799 2.9 4.564-6.411 2.566-22.571-2.791-22.571-.833 0-1.515-.45-1.515-1s-.421-1-.935-1-2.19-.477-3.723-1.06l-2.789-1.06 3.974-1.799c11.876-5.376 11.429-19.881-.801-25.948-5.126-2.543-14.951-3.642-20.226-2.262m58 .042c-8.034 2.234-12.597 5.887-15.593 12.484-2.936 6.466-2.78 34.767.227 41.166 6.88 14.635 33.18 16.381 43.473 2.886 4.351-5.705 4.356-20.186.009-25.886-5.739-7.524-16.206-9.629-25.197-5.067-2.705 1.373-5.154 2.498-5.442 2.5-.966.008.583-12.472 1.827-14.712 2.84-5.115 14.301-4.693 17.151.631.957 1.789 2.05 2.085 7.689 2.085h6.573l-.669-2.75c-2.414-9.921-17.788-16.745-30.048-13.337m59 .004c-7.526 2.083-12.134 5.46-15.12 11.083-2.336 4.398-3.295 31.887-1.364 39.061 4.748 17.632 34.117 21.461 44.576 5.812 6.724-10.061 5.484-41.529-1.959-49.72-5.045-5.552-17.696-8.571-26.133-6.236m4.874 9.798c-5.847 1.077-6.851 4.106-7.157 21.613-.328 18.702.632 21.858 7.008 23.055 9.947 1.865 11.775-1.686 11.775-22.874 0-19.844-1.987-23.569-11.626-21.794m-57.703 23.791c-6.992 1.921-8.671 3.809-8.671 9.745 0 9.13 5.723 13.706 13.463 10.763 4.314-1.64 5.47-3.869 5.505-10.609.032-6.131-1.658-9.405-4.856-9.405-.676 0-.952-.45-.612-1 .34-.55.479-.96.309-.911-.17.05-2.482.687-5.138 1.417" fill-rule="evenodd"/><path fill="#fa9343" stroke="#fa9343" d="M177.069 18.723c-.787.31-8.437 4.84-17 10.065a5482.94 5482.94 0 0 1-30.569 18.49c-8.25 4.944-15.787 9.674-16.75 10.511-1.653 1.436-1.75 10.165-1.75 156.866 0 85.44.35 155.345.778 155.345.428 0 7.478-4.05 15.667-9 8.188-4.95 15.208-9 15.599-9s1.329-.745 2.084-1.655c1.168-1.409 1.446 5.543 1.872 46.779l.5 48.433 2.555 4.963c1.546 3.003 4.245 6.15 6.836 7.971l4.281 3.009 183.792.258 183.792.258.745-110.396c.411-60.717.411-145.096 0-187.508L528.755 87H498V60.46c0-29.603-.305-31.166-7.206-36.986-6.893-5.812 2.992-5.481-161.012-5.395-83.205.043-151.926.333-152.713.644M292 174v86h42.974l.263-34.75.263-34.75 28.25-.266 28.25-.265V160h-57.041l.271-20.75.27-20.75 33-.209 33-.209.276-15.041.276-15.041H292v86m-23.442 188.492c-7.043 2.509-11.74 7.125-13.491 13.258l-.927 3.25h7.43c4.502 0 7.43-.412 7.43-1.045 0-5.037 11.014-7.941 15-3.955 5.275 5.275 1.706 12.237-6.655 12.98l-5.845.52-.298 5.126-.298 5.127 6.199.448c5.212.377 6.573.883 8.548 3.179 5.717 6.647.5 16.348-8.261 15.36-4.583-.516-9.39-3.8-9.39-6.414 0-1.377-10.21-1.95-13.339-.749-1.895.727-.533 5.376 2.95 10.071 7.397 9.972 31.143 10.834 40.507 1.47 9.103-9.104 6.895-23.095-4.356-27.597l-4.246-1.698 3.237-1.361c9.936-4.178 11.705-16.761 3.384-24.068-5.782-5.077-19.021-6.95-27.579-3.902m58.201-.128c-5.679 2.116-8.493 4.277-11.511 8.837l-2.748 4.153v39.46l3.051 3.843c10.669 13.437 36.406 11.658 44.193-3.055 2.025-3.827 2.232-16.008.333-19.602-5.515-10.436-17.921-14.115-28.547-8.465l-4.767 2.535.424-6.67c.502-7.877 3.382-11.4 9.322-11.4 3.578 0 8.491 1.787 8.491 3.089 0 2.398 3.509 3.911 9.071 3.911 6.87 0 7.43-1.138 3.931-7.997-4.187-8.206-20.386-12.686-31.243-8.639m59 0c-5.677 2.116-8.492 4.276-11.511 8.834-3.982 6.012-4.805 36.512-1.192 44.197 6.763 14.389 31.008 17.292 41.821 5.007 5.412-6.148 6.452-11.288 5.979-29.554-.442-17.106-2.494-22.17-10.856-26.788-5.46-3.016-18.291-3.914-24.241-1.696m4.897 10.769c-3.482 2.024-4.656 7.119-4.656 20.21 0 19.633 1.319 22.657 9.884 22.657 7.981 0 8.555-1.269 8.938-19.745.355-17.085.063-19.37-2.847-22.28-2.189-2.189-8.229-2.638-11.319-.842m-60.522 24.927c-3.328 2.029-3.361 2.121-2.926 8.145.543 7.501 2.756 9.795 9.448 9.795 6.554 0 9.344-3.122 9.344-10.455 0-9.228-7.333-12.688-15.866-7.485" fill-rule="evenodd"/><path fill="#fb6c04" stroke="#fb6c04" d="M179 173.838v155.864l-12.75 7.491a3874.334 3874.334 0 0 1-15.857 9.28l-3.106 1.789-.197 45.619c-.22 51.122.008 53.537 5.663 60.144 7.46 8.715-11.738 7.928 193.997 7.953L529 462V87h-31l-.022-25.75c-.024-28.351-.41-30.502-6.564-36.593-6.743-6.673 6.865-6.13-160.664-6.42L179 17.975v155.863M291.46 88.25c-.262.688-.36 39.725-.218 86.75l.258 85.5 21.75.27 21.75.269V191h57v-31h-57v-41h66.767l.704-6.575c.387-3.617.386-10.817-.002-16L401.762 87H346.85c-43.009 0-55.016.271-55.39 1.25m-19.603 273.159c-7.499 1.577-12.464 5.054-15.427 10.808-3.445 6.688-3.374 6.783 5.044 6.783 7.224 0 7.525-.097 8.963-2.879 2.62-5.066 10.032-5.883 13.49-1.486 4.728 6.01.677 12.365-7.882 12.365H271v11l4.25.002c10.618.003 16.194 9.073 9.978 16.228-3.645 4.197-14.027 2.5-16.386-2.678-1.093-2.399-1.604-2.552-8.503-2.552-8.203 0-8.351.176-5.459 6.541 8.443 18.588 45.728 15.594 48.652-3.907 1.322-8.818-2.763-16.235-10.316-18.728l-3.429-1.131 3.857-1.746c5.282-2.392 7.246-4.898 7.915-10.102 1.646-12.794-13.125-22.002-29.702-18.518m60.143-.33c-15.163 2.052-20.18 9.368-20.815 30.353-.683 22.565 3.164 31.515 15.065 35.05 22.405 6.653 40.353-8.361 34.632-28.97-3.106-11.186-20.008-16.717-30.359-9.935-2.195 1.438-2.395 1.401-3.018-.561-3.569-11.244 9.1-19.956 16.936-11.647 3.206 3.399 3.812 3.631 9.492 3.631 6.682 0 7.247-.755 5-6.685-3.128-8.258-14.349-12.938-26.933-11.236m53.648.948c-4.995 1.497-9.517 5.324-12.374 10.473-2.708 4.881-2.774 5.379-2.774 21 0 26.789 5.265 33.945 25 33.983 13.927.026 21.535-4.748 24.484-15.365 1.383-4.981 1.277-30.196-.152-35.869-2.976-11.82-19.401-18.653-34.184-14.222m5.587 11.01C387.678 374.466 387 378 387 395.111c0 18.657.957 20.889 8.955 20.889 8.077 0 9.364-3.615 8.874-24.915-.328-14.216-.338-14.271-3.135-16.674-2.893-2.486-6.509-2.961-10.459-1.374m-59.912 24.575c-3.687 1.819-5.025 6.661-3.385 12.25 2.553 8.7 15.449 8.414 17.659-.391 2.531-10.086-5.067-16.399-14.274-11.859" fill-rule="evenodd"/><path fill="#923c04" stroke="#923c04" d="m501.75 87.716-2.75.417-.187 117.933c-.104 64.864-.216 119.172-.25 120.684-.035 1.512-.738 3.056-1.563 3.43-.825.374-73.07.711-160.544.75l-159.043.07-14.457 8.821-14.456 8.821-.295 47.429c-.324 52.127-.292 52.466 5.587 58.708 7.41 7.868-9.918 7.221 193.33 7.221H529V88.262l-3.75-.62c-4.009-.663-18.947-.615-23.5.074M269.332 361.792c-7.438 2.655-11.856 6.396-13.912 11.777-2.192 5.74-1.442 6.394 7.355 6.416 5.654.013 6.362-.215 7.159-2.31 3.211-8.447 15.066-7.062 15.066 1.759 0 5.44-1.561 6.782-8.561 7.363l-5.439.451V398l3.25.006c9.126.015 12.75 2.837 12.75 9.928 0 8.677-11.024 11.689-16.707 4.566-2.73-3.421-2.956-3.5-10.043-3.5-8.039 0-8.377.367-5.87 6.366 3.361 8.044 10.005 11.842 21.752 12.433 17.501.881 27.784-6.542 27.846-20.099.03-6.562-2.113-10.165-8.068-13.567-4.719-2.695-4.887-2.922-2.59-3.499 7.493-1.88 10.721-11.786 6.61-20.279-3.97-8.201-19.463-12.537-30.598-8.563m59.471-.452c-14.384 4.054-17.303 9.746-17.303 33.738v17.579l3.005 4.921c8.547 13.999 34.292 14.342 43.951.586 4.581-6.526 4.576-20.085-.009-25.751-6.392-7.896-18.57-10.495-26.697-5.695l-3.75 2.215v-5.544c0-4.793.395-5.938 2.923-8.466 4.364-4.364 11.929-3.538 14.25 1.557 1.063 2.333 1.652 2.52 7.928 2.52 8.013 0 8.615-.616 6.087-6.238-4.491-9.988-17.767-14.978-30.385-11.422m60.197-.458c-14.99 3.286-19.474 12.076-18.839 36.923.387 15.158 2.315 21.262 7.995 25.306 10.678 7.604 29.403 6.547 37.215-2.1 4.848-5.367 5.617-9.145 5.623-27.647.006-15.732-.064-16.269-2.792-21.492-4.533-8.676-17.5-13.556-29.202-10.99m.884 14.08-2.962 2.962.128 16.672c.148 19.299 1.007 21.404 8.73 21.404 7.782 0 8.72-2.384 8.72-22.169v-17.005l-2.806-2.413c-3.896-3.351-8.106-3.155-11.81.549m-58.634 23.027c-4.538 2.767-4.916 12.555-.615 15.938 6.828 5.371 14.794.833 14.794-8.427 0-8.925-6.346-12.287-14.179-7.511" fill-rule="evenodd"/></svg>